<svg id="Capa_1" enable-background="new 0 0 512 512" height="512" viewBox="0 0 512 512" width="512" xmlns="http://www.w3.org/2000/svg" xmlns:xlink="http://www.w3.org/1999/xlink"><linearGradient id="SVGID_1_" gradientUnits="userSpaceOnUse" x1="257" x2="257" y1="512" y2="0"><stop offset="0" stop-color="#fd5900"/><stop offset="1" stop-color="#ffde00"/></linearGradient><linearGradient id="SVGID_2_" gradientUnits="userSpaceOnUse" x1="256" x2="256" y1="451" y2="24.994"><stop offset="0" stop-color="#ffe59a"/><stop offset="1" stop-color="#ffffd5"/></linearGradient><g><g><g><path d="m445.32 219.203-180-119.692c-5.039-3.34-11.602-3.34-16.641 0l-180 119.692c-4.16 2.783-6.68 7.471-6.68 12.495v265.302c0 8.291 6.709 15 15 15h360c8.291 0 15-6.709 15-15v-265.302c.001-5.024-2.519-9.712-6.679-12.495zm-8.32-219.203h-60c-8.291 0-15 6.709-15 15v104.799c0 5.024 2.52 9.712 6.68 12.495l60 39.902c4.625 3.039 10.5 3.349 15.41.732 4.863-2.622 7.91-7.705 7.91-13.228v-144.7c0-8.291-6.709-15-15-15z" fill="url(#SVGID_1_)"/></g></g><g><g><path d="m307.923 241c-25.225 0-41.689 13.521-51.914 27.275-10.225-13.754-26.69-27.275-51.915-27.275-37.529 0-66.943 31.348-66.943 71.367 0 42.729 34.482 71.821 82.207 112.104 8.438 7.119 17.402 14.692 26.836 22.866 2.813 2.446 6.299 3.662 9.814 3.662 3.516 0 7.002-1.216 9.814-3.662 9.434-8.174 18.398-15.747 26.836-22.866 47.724-40.283 82.207-69.375 82.207-112.104.001-40.019-29.413-71.367-66.942-71.367zm197.389-53-240.983-160.501c-5.039-3.34-11.602-3.34-16.641 0l-241 160.609c-6.885 4.585-8.76 13.887-4.189 20.786l32.988 49.79c4.6 6.885 13.799 8.73 20.742 4.263l199.779-132.924 198.779 131.924c2.549 1.655 6.374 3.338 9.216 3.338 4.863 0 9.609-2.358 12.51-6.709l32.988-49.79c4.571-6.899 2.696-16.201-4.189-20.786z" fill="url(#SVGID_2_)"/></g></g></g></svg>