<svg height="512" viewBox="0 0 60 49" width="512" xmlns="http://www.w3.org/2000/svg"><g id="Page-1" fill="none" fill-rule="evenodd"><g id="049---Talking-About-Someone" fill-rule="nonzero"><path id="Shape" d="m58.68 47.25c.0644423.1942426.020199.408114-.1160213.5608459-.1362203.1527318-.3436596.22105-.5439787.1791541l-8.21-1.84c-2.3109229.9844848-4.7981261 1.4880499-7.31 1.48-7.38 0-13.63-4.2-15.74-10 9.83-1.69 17.24-9.17 17.24-18.13 0-.15 0-.3-.01-.44 8.41.65 15.01 6.79 15.01 14.26-.0073785 2.6954803-.8647119 5.3199702-2.45 7.5z" fill="#9d27b0"/><path id="Shape" d="m56.55 40.82c1.5852881-2.1800298 2.4426215-4.8045197 2.45-7.5 0-7.47-6.6-13.61-15.01-14.26.01.14.01.29.01.44v.042c6.923 1.7 12 7.226 12 13.778-.0073785 2.6954803-.8647119 5.3199702-2.45 7.5l2.13 6.43c.0188016.0710916.0228851.1452743.012.218l2.328.522c.2003191.0418959.4077584-.0264223.5439787-.1791541.1362203-.1527319.1804636-.3666033.1160213-.5608459z" fill="#6a1b9a"/><path id="Shape" d="m44 19.5c0 8.96-7.41 16.44-17.24 18.13-1.4066533.2461026-2.8319804.3698986-4.26.37-3.2623053.0128809-6.4935955-.6333771-9.5-1.9l-.02.05-10.7 2.38c-.26096355.0550912-.53155151-.0325543-.71065597-.2301868s-.23977597-.4755147-.15934403-.7298132l2.78-8.32.03-.02c-2.07597127-2.8208495-3.20339611-6.2276333-3.22-9.73 0-10.22 9.63-18.5 21.5-18.5 11.7 0 21.22 8.04 21.49 18.06.01.14.01.29.01.44z" fill="#ffdc00"/><path id="Shape" d="m43.99 19.06c-.27-10.02-9.79-18.06-21.49-18.06-.5 0-1 .035-1.489.065 11 .659 19.721 8.412 19.979 17.995.01.14.01.29.01.44 0 8.96-7.41 16.44-17.24 18.13-.9597004.1604842-1.9280618.2639987-2.9.31.543.036 1.09.06 1.643.06 1.4280196-.0001014 2.8533467-.1238974 4.26-.37 9.827-1.69 17.237-9.17 17.237-18.13 0-.15 0-.3-.01-.44z" fill="#fec108"/><path id="Shape" d="m33 28.67v1c-.0032854.7331736-.5968264 1.3267146-1.33 1.33h-18.34c-.7331736-.0032854-1.3267146-.5968264-1.33-1.33v-1c.0015351-3.9827405 2.3662915-7.5848694 6.02-9.17 2.6518302 2.0000449 6.3081698 2.0000449 8.96 0 1.1559698.4938478 2.2053061 1.206989 3.09 2.1 1.8783897 1.8729903 2.9328508 4.4173726 2.93 7.07z" fill="#02a9f4"/><path id="Shape" d="m30.07 21.6c-.8846939-.893011-1.9340302-1.6061522-3.09-2.1-.4519574.3339576-.9408389.6148044-1.457.837.5580365.3662593 1.0764892.7895339 1.547 1.263 1.8783897 1.8729903 2.9328508 4.4173726 2.93 7.07v1c-.0032854.7331736-.5968264 1.3267146-1.33 1.33h3c.7331736-.0032854 1.3267146-.5968264 1.33-1.33v-1c.0028508-2.6526274-1.0516103-5.1970097-2.93-7.07z" fill="#0377bc"/><path id="Shape" d="m30 13.5c0 4.1421356-3.3578644 7.5-7.5 7.5s-7.5-3.3578644-7.5-7.5c0-4.14213562 3.3578644-7.5 7.5-7.5 1.9946058-.0180616 3.9127723.76631344 5.3232294 2.17677057 1.4104572 1.41045713 2.1948322 3.32862363 2.1767706 5.32322943z" fill="#ffe0b2"/><path id="Shape" d="m22.5 6c-.5038063-.00024943-1.0063519.05034017-1.5.151 2.8963448.58755566 5.1762961 2.8234952 5.8201902 5.7078383s-.4686976 5.8776262-2.8401902 7.6411617c-.8805208.6624587-1.899135 1.1177588-2.98 1.332 2.2038265.4498598 4.4932065-.1131322 6.2370475-1.5337813 1.7438409-1.4206491 2.7580144-3.548952 2.7629525-5.7982187 0-4.14213562-3.3578644-7.5-7.5-7.5z" fill="#dfc49c"/><g fill="#000"><path id="Shape" d="m22.5 22c-4.6944204 0-8.5-3.8055796-8.5-8.5 0-4.69442037 3.8055796-8.5 8.5-8.5s8.5 3.80557963 8.5 8.5c-.0055104 4.692136-3.807864 8.4944896-8.5 8.5zm0-15c-3.5898509 0-6.5 2.91014913-6.5 6.5 0 3.5898509 2.9101491 6.5 6.5 6.5s6.5-2.9101491 6.5-6.5c-.0044079-3.58802348-2.9119765-6.4955921-6.5-6.5z"/><path id="Shape" d="m17 32c-.5522847 0-1-.4477153-1-1v-4c0-.5522847.4477153-1 1-1s1 .4477153 1 1v4c0 .5522847-.4477153 1-1 1z"/><path id="Shape" d="m28 32c-.5522847 0-1-.4477153-1-1v-4c0-.5522847.4477153-1 1-1s1 .4477153 1 1v4c0 .5522847-.4477153 1-1 1z"/><path id="Shape" d="m44.918 18.164c-.789-10.25-10.434-18.164-22.418-18.164-12.406 0-22.5 8.748-22.5 19.5.01573081 3.5268132 1.09623713 6.9666573 3.1 9.869l-2.639 7.886c-.17381066.53326-.08133495 1.1175278.24865948 1.5710474.32999444.4535197.85747096.7212678 1.41834052.7199526.12402551-.000058.24770263-.0131296.369-.039l10.483-2.332c3.0246797 1.2208825 6.2582531 1.840764 9.52 1.825 1.2150875-.0076487 2.4281131-.1012154 3.63-.28 2.558 5.956 9.019 9.91 16.37 9.91 2.5363272.010563 5.050217-.4752292 7.4-1.43l7.913 1.773c.550515.1157416 1.1208982-.0717087 1.4954302-.491457.374532-.4197484.4960401-1.0077198.3185698-1.541543l-1.974-5.957c1.5237029-2.2656588 2.3405392-4.932645 2.347-7.663 0-7.742-6.429-14.12-15.082-15.156zm-31.525 17.016c-.2499347-.1074809-.5330653-.1074809-.783 0-.0371418.0152381-.0732224.0329443-.108.053l-10 2.224 2.579-7.72c.05997729-.1011468.10129999-.2122439.122-.328.04806348-.2669508-.01437622-.5419742-.173-.762-1.94993922-2.6528629-3.01055101-5.8546504-3.03-9.147 0-9.649 9.2-17.5 20.5-17.5 11.044 0 20.236 7.665 20.492 17.129.009.118.008.244.008.371 0 8.3-6.9 15.51-16.413 17.145-1.3495118.2362401-2.7169666.3550183-4.087.355-3.1276885.0173059-6.2261988-.6019199-9.107-1.82zm42.207 5.955 1.892 5.713-7.465-1.673c-.2050641-.0473699-.4199136-.0277425-.613.056-2.1853206.933633-4.5386172 1.4100777-6.915 1.4-6.375 0-11.986-3.281-14.352-8.274 9.58-2.138 16.468-9.553 16.817-18.174 7.389 1.023 13.036 6.617 13.036 13.137-.0091734 2.4865786-.8013185 4.9070997-2.264 6.918-.1861628.2600499-.2367125.5934551-.136.897z"/><path id="Shape" d="m34 29.67v-1c.0063117-2.9156775-1.1525883-5.7130222-3.219-7.77-.976727-.9836956-2.1338094-1.7700228-3.408-2.316l-.785 1.84c1.0377921.4446012 1.9800228 1.085318 2.775 1.887 1.6921128 1.6830077 2.6415063 3.9724249 2.637 6.359v1c-.0021592.1813521-.1486479.3278408-.33.33h-18.34c-.1813521-.0021592-.3278408-.1486479-.33-.33v-1c-.0032788-3.5850347 2.1256116-6.8286839 5.416-8.252l-.793-1.836c-4.0233233 1.7392997-6.626776 5.7048186-6.623 10.088v1c.0011028 1.2863664 1.0436336 2.3288972 2.33 2.33h18.34c1.2863664-.0011028 2.3288972-1.0436336 2.33-2.33z"/></g></g></g></svg>